Tower Heist (2011) 1080p MKV x264 AC3+DTS MultiSubs
.
Wanneer de NL ondertitel beschikbaar is zal ik deze appart uploaden.
Je hoeft hem dan alleen in dezelfde map te zetten.
.
\/\/\/\/\/\/\/\/\/\/\/\/\/\/\/\/\/\/\/\/\/\/\/\/\/\/\/\/\/\/\/\/\/\/\/\/\/\/\/\/\/\/\/\/\/\/\/\/\/\/\/\/\/\/\/\/\/\/\/\/\/\/\/\/\/\/\/\/\/\/\/\/\/\/\/\/\/\/\/\/\/\/\/\/\/\/\/\/\/
Voor degene die hem met NL Ondertitels wil hebben, die is vast ergens in de maak
Maar waar voorheen de nederlandse vertaal-teams snel waren, lijken ze steeds langzamer te worden
Ze besteden tegenwoordig meer tijd aan het moeilijker maken om ondertitels te rippen,
en onnodige discussies voeren, dan gewoon mensen blij met vertaalde films te maken.
Vandaar mijn besluit om MKV releases nu dan ook zonder NL ondertitels te plaatsen.              
Ik heb een nfo bestand erbij gedaan waar je ondertitels kunt downloaden, dus lees dat wel.
Dit bestand heet:    READ NFO ONDERTITELS DOWNLOADEN.
\/\/\/\/\/\/\/\/\/\/\/\/\/\/\/\/\/\/\/\/\/\/\/\/\/\/\/\/\/\/\/\/\/\/\/\/\/\/\/\/\/\/\/\/\/\/\/\/\/\/\/\/\/\/\/\/\/\/\/\/\/\/\/\/\/\/\/\/\/\/\/\/\/\/\/\/\/\/\/\/\/\/\/\/\/\/\/\/\/
.
Binnenkort zal ik een handlleiding maken hoe je in 10 minuten (BV omgezette BR2DVD) ondertitels erin kunt zetten.
Want dit is echt niet zo moeilijk als een hoop denken.
Als je hem dan al zonder subs hebt ben je zo klaar.
.
[IMG]http://img443.imageshack.us/img443/5943/th2012.jpg[/IMG]
.
Verenigde Staten
Actie / Komedie
104 minuten

geregisseerd door Brett Ratner
met Ben Stiller, Eddie Murphy en Casey Affleck

Een overwerkte manager van een luxe appartementencomplex heeft samen met zijn personeel zijn pensioen verloren aan het piramidespel van een Wall Street crimineel. De fraudeur woont in een groot penthouse onder huisarrest. Onder leiding van de manager gebruiken de medewerkers hun kennis van het gebouw om de fraudeur een poot uit te draaien.

Vanaf 13 maart te huur
. 
http://www.moviemeter.nl/film/73345
.
PLOT
.
When a group of hard working guys find out they've fallen victim to a wealthy business man's Ponzi scheme, they conspire to rob his high-rise residence. 
. 
http://www.imdb.com/title/tt0471042/
.
INFO
.
Source: AMIABLE
.
Format                           : Matroska
Format version                   : Version 2
File size                        : 8.13 GiB
Duration                         : 1h 44mn
Overall bit rate                 : 11.1 Mbps
Encoded date                     : UTC 2012-02-10 08:19:42
Writing application              : mkvmerge v5.2.0 ('I can't explain') built on Dec 18 2011 18:12:03
Writing library                  : libebml v1.2.3 + libmatroska v1.3.0

Video
ID                               : 1
Format                           : AVC
Format/Info                      : Advanced Video Codec
Format profile                   : High@L4.1
Format settings, CABAC           : Yes
Format settings, ReFrames        : 5 frames
Codec ID                         : V_MPEG4/ISO/AVC
Duration                         : 1h 44mn
Bit rate                         : 8 968 Kbps
Width                            : 1 920 pixels
Height                           : 800 pixels
Display aspect ratio             : 2.40:1
Frame rate                       : 23.976 fps
Color space                      : YUV
Chroma subsampling               : 4:2:0
Bit depth                        : 8 bits
Scan type                        : Progressive
Bits/(Pixel*Frame)               : 0.244
Stream size                      : 6.40 GiB (79%)
Writing library                  : x264 core 120 r2146 bcd41db
Encoding settings                : cabac=1 / ref=5 / deblock=1:0:0 / analyse=0x3:0x113 / me=umh / subme=8 / psy=1 / psy_rd=1.00:0.00 / mixed_ref=1 / me_range=16 / chroma_me=1 / trellis=1 / 8x8dct=1 / cqm=0 / deadzone=21,11 / fast_pskip=1 / chroma_qp_offset=-2 / threads=12 / sliced_threads=0 / nr=0 / decimate=1 / interlaced=0 / bluray_compat=0 / constrained_intra=0 / bframes=3 / b_pyramid=2 / b_adapt=2 / b_bias=0 / direct=3 / weightb=1 / open_gop=0 / weightp=2 / keyint=240 / keyint_min=24 / scenecut=40 / intra_refresh=0 / rc_lookahead=50 / rc=2pass / mbtree=1 / bitrate=8968 / ratetol=1.0 / qcomp=0.60 / qpmin=0 / qpmax=69 / qpstep=4 / cplxblur=20.0 / qblur=0.5 / ip_ratio=1.40 / aq=1:1.00
Language                         : English
Default                          : Yes
Forced                           : No

Audio #1
ID                               : 2
Format                           : DTS
Format/Info                      : Digital Theater Systems
Codec ID                         : A_DTS
Duration                         : 1h 44mn
Bit rate mode                    : Constant
Bit rate                         : 1 510 Kbps
Channel(s)                       : 6 channels
Channel positions                : Front: L C R, Side: L R, LFE
Sampling rate                    : 48.0 KHz
Bit depth                        : 24 bits
Compression mode                 : Lossy
Stream size                      : 1.10 GiB (14%)
Title                            : DTS
Language                         : English
Default                          : Yes
Forced                           : No

Audio #2
ID                               : 3
Format                           : AC-3
Format/Info                      : Audio Coding 3
Mode extension                   : CM (complete main)
Codec ID                         : A_AC3
Duration                         : 1h 44mn
Bit rate mode                    : Constant
Bit rate                         : 640 Kbps
Channel(s)                       : 6 channels
Channel positions                : Front: L C R, Side: L R, LFE
Sampling rate                    : 48.0 KHz
Bit depth                        : 16 bits
Compression mode                 : Lossy
Stream size                      : 479 MiB (6%)
Title                            : AC3
Language                         : English
Default                          : No
Forced                           : No

Text #1
ID                               : 4
Format                           : UTF-8
Codec ID                         : S_TEXT/UTF8
Codec ID/Info                    : UTF-8 Plain Text
Title                            : Normal
Language                         : English
Default                          : No
Forced                           : No

Text #2
ID                               : 5
Format                           : UTF-8
Codec ID                         : S_TEXT/UTF8
Codec ID/Info                    : UTF-8 Plain Text
Title                            : FHI
Language                         : English
Default                          : No
Forced                           : No

Text #3
ID                               : 6
Format                           : UTF-8
Codec ID                         : S_TEXT/UTF8
Codec ID/Info                    : UTF-8 Plain Text
Title                            : Bulgarian
Default                          : No
Forced                           : No

Text #4
ID                               : 7
Format                           : UTF-8
Codec ID                         : S_TEXT/UTF8
Codec ID/Info                    : UTF-8 Plain Text
Language                         : Portuguese
Default                          : No
Forced                           : No

Text #5
ID                               : 8
Format                           : UTF-8
Codec ID                         : S_TEXT/UTF8
Codec ID/Info                    : UTF-8 Plain Text
Language                         : Romanian
Default                          : No
Forced                           : No

Text #6
ID                               : 9
Format                           : VobSub
Muxing mode                      : zlib
Codec ID                         : S_VOBSUB
Codec ID/Info                    : The same subtitle format used on DVDs
Language                         : English
Default                          : No
Forced                           : No

Text #7
ID                               : 10
Format                           : VobSub
Muxing mode                      : zlib
Codec ID                         : S_VOBSUB
Codec ID/Info                    : The same subtitle format used on DVDs
Language                         : French
Default                          : No
Forced                           : No

Text #8
ID                               : 11
Format                           : VobSub
Muxing mode                      : zlib
Codec ID                         : S_VOBSUB
Codec ID/Info                    : The same subtitle format used on DVDs
Language                         : Spanish
Default                          : No
Forced                           : No

Menu
00:00:00.000                     : en:00:00:00.000
00:03:23.203                     : en:00:03:23.203
00:09:20.810                     : en:00:09:20.810
00:14:09.599                     : en:00:14:09.599
00:19:13.778                     : en:00:19:13.778
00:23:41.503                     : en:00:23:41.503
00:27:16.468                     : en:00:27:16.468
00:32:05.549                     : en:00:32:05.549
00:38:16.377                     : en:00:38:16.377
00:43:57.260                     : en:00:43:57.260
00:49:20.541                     : en:00:49:20.541
00:53:42.594                     : en:00:53:42.594
00:56:58.582                     : en:00:56:58.582
01:01:46.995                     : en:01:01:46.995
01:06:22.687                     : en:01:06:22.687
01:11:30.161                     : en:01:11:30.161
01:17:13.504                     : en:01:17:13.504
01:23:09.568                     : en:01:23:09.568
01:31:52.257                     : en:01:31:52.257
01:38:42.125                     : en:01:38:42.125


.
Enjoy
